<svg width="13" height="13" viewBox="0 0 13 13" fill="none" xmlns="http://www.w3.org/2000/svg">
    <path fill-rule="evenodd" clip-rule="evenodd" d="M4.04338 0.577498C4.67875 0.548248 4.88134 0.541748 6.49984 0.541748C8.11834 0.541748 8.32092 0.54879 8.95575 0.577498C9.59059 0.606206 10.0239 0.707498 10.4031 0.85429C10.8001 1.00433 11.1603 1.23887 11.4583 1.54221C11.7616 1.83958 11.9956 2.19925 12.1451 2.59683C12.2924 2.976 12.3932 3.40933 12.4224 4.04308C12.4517 4.67954 12.4582 4.88212 12.4582 6.50008C12.4582 8.11858 12.4511 8.32116 12.4224 8.95654C12.3937 9.59029 12.2924 10.0236 12.1451 10.4028C11.9956 10.8004 11.7612 11.1607 11.4583 11.4585C11.1603 11.7618 10.8001 11.9958 10.4031 12.1453C10.0239 12.2927 9.59059 12.3934 8.95684 12.4227C8.32092 12.4519 8.11834 12.4584 6.49984 12.4584C4.88134 12.4584 4.67875 12.4514 4.04338 12.4227C3.40963 12.394 2.9763 12.2927 2.59713 12.1453C2.1995 11.9958 1.83924 11.7614 1.54142 11.4585C1.23829 11.1609 1.00372 10.8009 0.854046 10.4033C0.707254 10.0242 0.606504 9.59083 0.577254 8.95708C0.548004 8.32062 0.541504 8.11804 0.541504 6.50008C0.541504 4.88158 0.548546 4.679 0.577254 4.04416C0.605962 3.40933 0.707254 2.976 0.854046 2.59683C1.00394 2.19929 1.23869 1.83921 1.54196 1.54166C1.83936 1.2386 2.19926 1.00403 2.59659 0.85429C2.97575 0.707498 3.40909 0.606748 4.04284 0.577498H4.04338ZM8.90754 1.65C8.27921 1.62129 8.09071 1.61533 6.49984 1.61533C4.90896 1.61533 4.72046 1.62129 4.09213 1.65C3.51092 1.67654 3.19567 1.7735 2.9855 1.85529C2.70763 1.96362 2.50884 2.092 2.3003 2.30054C2.10261 2.49286 1.95048 2.72698 1.85505 2.98575C1.77325 3.19591 1.6763 3.51116 1.64975 4.09237C1.62105 4.72071 1.61509 4.90921 1.61509 6.50008C1.61509 8.09096 1.62105 8.27946 1.64975 8.90779C1.6763 9.489 1.77325 9.80425 1.85505 10.0144C1.95038 10.2728 2.10259 10.5073 2.3003 10.6996C2.49259 10.8973 2.72713 11.0495 2.9855 11.1449C3.19567 11.2267 3.51092 11.3236 4.09213 11.3502C4.72046 11.3789 4.90842 11.3848 6.49984 11.3848C8.09125 11.3848 8.27921 11.3789 8.90754 11.3502C9.48875 11.3236 9.804 11.2267 10.0142 11.1449C10.292 11.0365 10.4908 10.9082 10.6994 10.6996C10.8971 10.5073 11.0493 10.2728 11.1446 10.0144C11.2264 9.80425 11.3234 9.489 11.3499 8.90779C11.3786 8.27946 11.3846 8.09096 11.3846 6.50008C11.3846 4.90921 11.3786 4.72071 11.3499 4.09237C11.3234 3.51116 11.2264 3.19591 11.1446 2.98575C11.0363 2.70787 10.9079 2.50908 10.6994 2.30054C10.507 2.10287 10.2729 1.95074 10.0142 1.85529C9.804 1.7735 9.48875 1.67654 8.90754 1.65V1.65ZM5.7388 8.33687C6.16382 8.5138 6.63708 8.53768 7.07776 8.40443C7.51843 8.27118 7.89917 7.98908 8.15496 7.6063C8.41074 7.22352 8.5257 6.7638 8.4802 6.30568C8.43469 5.84756 8.23155 5.41944 7.90546 5.09446C7.69759 4.88671 7.44624 4.72765 7.16952 4.6287C6.89279 4.52976 6.59757 4.4934 6.30511 4.52225C6.01264 4.55109 5.73021 4.64443 5.47815 4.79553C5.22608 4.94663 5.01066 5.15173 4.84738 5.39608C4.6841 5.64043 4.57702 5.91795 4.53387 6.20864C4.49071 6.49934 4.51254 6.79599 4.5978 7.07724C4.68305 7.35848 4.8296 7.61733 5.02689 7.83514C5.22419 8.05295 5.46733 8.22431 5.7388 8.33687ZM4.33425 4.3345C4.61864 4.05011 4.95626 3.82452 5.32783 3.67061C5.6994 3.5167 6.09765 3.43748 6.49984 3.43748C6.90202 3.43748 7.30027 3.5167 7.67184 3.67061C8.04341 3.82452 8.38103 4.05011 8.66542 4.3345C8.94981 4.61889 9.1754 4.9565 9.32931 5.32808C9.48322 5.69965 9.56243 6.0979 9.56243 6.50008C9.56243 6.90227 9.48322 7.30052 9.32931 7.67209C9.1754 8.04366 8.94981 8.38128 8.66542 8.66567C8.09107 9.24001 7.31209 9.56268 6.49984 9.56268C5.68759 9.56268 4.9086 9.24001 4.33425 8.66567C3.75991 8.09132 3.43724 7.31233 3.43724 6.50008C3.43724 5.68783 3.75991 4.90885 4.33425 4.3345V4.3345ZM10.2417 3.89358C10.3121 3.8271 10.3686 3.74716 10.4076 3.65848C10.4466 3.56981 10.4674 3.47421 10.4689 3.37734C10.4703 3.28046 10.4522 3.18429 10.4158 3.09452C10.3794 3.00475 10.3253 2.92319 10.2568 2.85469C10.1883 2.78618 10.1068 2.73212 10.017 2.6957C9.92721 2.65927 9.83104 2.64124 9.73417 2.64265C9.63729 2.64406 9.54169 2.66489 9.45302 2.70392C9.36434 2.74294 9.2844 2.79936 9.21792 2.86983C9.08863 3.00689 9.01785 3.18894 9.02059 3.37734C9.02334 3.56573 9.0994 3.74564 9.23263 3.87887C9.36586 4.0121 9.54577 4.08816 9.73417 4.09091C9.92256 4.09366 10.1046 4.02287 10.2417 3.89358V3.89358Z" fill="#66994A"/>
</svg>
