<svg width="41" height="41" viewBox="0 0 41 41" fill="none" xmlns="http://www.w3.org/2000/svg">
<g filter="url(#filter0_d_23_89)">
<path fill-rule="evenodd" clip-rule="evenodd" d="M21.875 7.00007C24.0299 7.00007 26.0965 7.8561 27.6202 9.37983C29.144 10.9036 30 12.9702 30 15.1251C30 17.28 29.144 19.3466 27.6202 20.8703C26.0965 22.394 24.0299 23.2501 21.875 23.2501C19.7201 23.2501 17.6535 22.394 16.1298 20.8703C14.606 19.3466 13.75 17.28 13.75 15.1251C13.75 12.9702 14.606 10.9036 16.1298 9.37983C17.6535 7.8561 19.7201 7.00007 21.875 7.00007ZM32.5 15.1251C32.4999 13.4308 32.0945 11.7612 31.3179 10.2554C30.5412 8.74963 29.4157 7.45144 28.0353 6.46912C26.6549 5.4868 25.0596 4.84884 23.3824 4.60846C21.7053 4.36808 19.995 4.53226 18.3943 5.0873C16.7935 5.64233 15.3487 6.57213 14.1803 7.79912C13.012 9.02611 12.154 10.5147 11.678 12.1407C11.202 13.7667 11.1217 15.483 11.4439 17.1463C11.766 18.8097 12.4813 20.3719 13.53 21.7026L8.965 26.2676C8.7373 26.5033 8.61131 26.8191 8.61416 27.1468C8.61701 27.4746 8.74847 27.7881 8.98023 28.0198C9.21199 28.2516 9.5255 28.3831 9.85325 28.3859C10.181 28.3888 10.4967 28.2628 10.7325 28.0351L15.2975 23.4701C16.8642 24.7051 18.747 25.474 20.7303 25.6889C22.7137 25.9039 24.7175 25.5561 26.5124 24.6854C28.3073 23.8146 29.8208 22.4562 30.8797 20.7654C31.9386 19.0747 32.5001 17.12 32.5 15.1251ZM23.125 10.7501C23.125 10.4186 22.9933 10.1006 22.7589 9.86619C22.5245 9.63177 22.2065 9.50007 21.875 9.50007C20.3832 9.50007 18.9524 10.0927 17.8975 11.1476C16.8426 12.2025 16.25 13.6332 16.25 15.1251C16.25 15.4566 16.3817 15.7745 16.6161 16.009C16.8505 16.2434 17.1685 16.3751 17.5 16.3751C17.8315 16.3751 18.1495 16.2434 18.3839 16.009C18.6183 15.7745 18.75 15.4566 18.75 15.1251C18.75 14.2963 19.0792 13.5014 19.6653 12.9154C20.2513 12.3293 21.0462 12.0001 21.875 12.0001C22.2065 12.0001 22.5245 11.8684 22.7589 11.634C22.9933 11.3995 23.125 11.0816 23.125 10.7501Z" fill="black"/>
</g>
<defs>
<filter id="filter0_d_23_89" x="0.614258" y="0.500977" width="39.8857" height="39.885" filterUnits="userSpaceOnUse" color-interpolation-filters="sRGB">
<feFlood flood-opacity="0" result="BackgroundImageFix"/>
<feColorMatrix in="SourceAlpha" type="matrix" values="0 0 0 0 0 0 0 0 0 0 0 0 0 0 0 0 0 0 127 0" result="hardAlpha"/>
<feOffset dy="4"/>
<feGaussianBlur stdDeviation="4"/>
<feComposite in2="hardAlpha" operator="out"/>
<feColorMatrix type="matrix" values="0 0 0 0 0 0 0 0 0 0 0 0 0 0 0 0 0 0 0.25 0"/>
<feBlend mode="normal" in2="BackgroundImageFix" result="effect1_dropShadow_23_89"/>
<feBlend mode="normal" in="SourceGraphic" in2="effect1_dropShadow_23_89" result="shape"/>
</filter>
</defs>
</svg>
