<svg width="13" height="11" viewBox="0 0 13 11" fill="none" xmlns="http://www.w3.org/2000/svg">
    <path d="M12.8064 1.67427C12.3541 1.87469 11.8682 2.0101 11.3574 2.07131C11.8845 1.75595 12.2788 1.25961 12.4668 0.674895C11.9716 0.969015 11.4297 1.17604 10.8645 1.28698C10.4845 0.881197 9.98111 0.612239 9.43254 0.52186C8.88398 0.431482 8.32092 0.524741 7.83079 0.787157C7.34065 1.04957 6.95087 1.46647 6.72195 1.97311C6.49303 2.47975 6.43778 3.0478 6.56478 3.58906C5.56145 3.53869 4.57991 3.2779 3.68389 2.82364C2.78786 2.36937 1.99736 1.73177 1.3637 0.952229C1.14703 1.32598 1.02245 1.75931 1.02245 2.22081C1.02221 2.63627 1.12452 3.04536 1.3203 3.41179C1.51608 3.77822 1.79929 4.09067 2.14478 4.3214C1.7441 4.30865 1.35226 4.20038 1.00187 4.0056V4.0381C1.00183 4.6208 1.20338 5.18556 1.57234 5.63656C1.9413 6.08756 2.45493 6.39703 3.02607 6.51244C2.65437 6.61303 2.26467 6.62785 1.88641 6.55577C2.04755 7.05715 2.36145 7.49558 2.78415 7.80969C3.20685 8.1238 3.7172 8.29787 4.24374 8.30752C3.3499 9.0092 2.24601 9.38982 1.10966 9.38815C0.908364 9.3882 0.707241 9.37645 0.507324 9.35294C1.66079 10.0946 3.00351 10.4882 4.37482 10.4866C9.01691 10.4866 11.5546 6.6419 11.5546 3.3074C11.5546 3.19906 11.5519 3.08965 11.547 2.98131C12.0406 2.62434 12.4667 2.1823 12.8053 1.6759L12.8064 1.67427Z" fill="#66994A"/>
</svg>
